<?xml version="1.0" encoding="UTF-8" standalone="no"?>
<svg
   width="120"
   height="120"
   viewBox="0 0 120 120"
   version="1.1"
   id="svg5"
   xml:space="preserve"
   sodipodi:docname="favicon.svg"
   inkscape:version="1.2 (dc2aedaf03, 2022-05-15)"
   inkscape:export-filename="favicon.svg"
   inkscape:export-xdpi="96"
   inkscape:export-ydpi="96"
   xmlns:inkscape="http://www.inkscape.org/namespaces/inkscape"
   xmlns:sodipodi="http://sodipodi.sourceforge.net/DTD/sodipodi-0.dtd"
   xmlns="http://www.w3.org/2000/svg"
   xmlns:svg="http://www.w3.org/2000/svg"><sodipodi:namedview
     id="namedview7"
     pagecolor="#ffffff"
     bordercolor="#000000"
     borderopacity="0.25"
     inkscape:showpageshadow="2"
     inkscape:pageopacity="0.0"
     inkscape:pagecheckerboard="0"
     inkscape:deskcolor="#d1d1d1"
     inkscape:document-units="px"
     showgrid="false"
     showguides="true"
     inkscape:zoom="5.0675986"
     inkscape:cx="70.348903"
     inkscape:cy="48.741035"
     inkscape:window-width="1920"
     inkscape:window-height="1080"
     inkscape:window-x="0"
     inkscape:window-y="0"
     inkscape:window-maximized="1"
     inkscape:current-layer="layer1"><sodipodi:guide
       position="60.139535,72.976744"
       orientation="1,0"
       id="guide262"
       inkscape:locked="false" /><sodipodi:guide
       position="8.7906977,59.72093"
       orientation="0,-1"
       id="guide264"
       inkscape:locked="false" /></sodipodi:namedview><defs
     id="defs2" /><g
     inkscape:label="Layer 1"
     inkscape:groupmode="layer"
     id="layer1"><rect
       style="display:inline;fill:#f2f2f2;stroke-width:0.999999"
       id="rect391"
       width="112.85666"
       height="114.3089"
       x="0"
       y="0"
       ry="18.081629" /><g
       id="g102"
       transform="matrix(1.0929637,0,0,1.0929637,9.0623563,2.723184)"
       style="fill:#009a00;fill-opacity:1"><path
         fill="#010101"
         d="m 67.83,64.129 c 0.028,-2.929 0.017,-9.357 -0.493,-15.71 0.045,2.677 0.115,5.127 0.206,6.409 0.051,0.735 0.163,4.585 0.287,9.301 z"
         id="path75"
         style="fill:#009a00;fill-opacity:1" /><path
         fill="#010101"
         d="m 43.334,9.037 c 0.087,-2.058 -0.024,-4.262 1.72,-4.136 0.837,0.061 2.279,0.274 4.063,0.631 1.978,0.396 1.699,11.121 1.699,11.121 l 7.171,2.788 C 58.223,11.68 56.283,2.668 54.347,2.116 51.103,1.191 46.342,-0.738 41.611,0.297 38.45,0.988 37.604,12.593 37.604,12.593 l 5.532,1.449 c 0,0 0.058,-1.712 0.198,-5.005 z"
         id="path77"
         style="fill:#009a00;fill-opacity:1" /><path
         fill="#010101"
         d="m 9.969,48.267 c 1.165,0.431 3.085,1.064 5.358,1.777 1.699,-4.705 4.58,-8.294 4.58,-8.294 0,0 0.665,-1.743 4.006,-1.041 3.341,0.701 3.497,2.226 3.497,2.226 0,0 -2.164,3.508 -4.268,8.236 -0.13,0.292 -0.301,0.655 -0.431,1.102 5.297,1.544 10.415,2.911 11.887,3.045 2.897,0.265 10.174,0.583 11.557,-6.42 1.364,-6.911 2.714,-11.127 3.864,-13.759 0.23,-0.575 0.437,-1.051 0.589,-1.395 0.313,-0.708 1.266,-2.128 2.652,-3.52 0,-0.001 0,-0.001 0,-0.002 0.004,-0.01 0.01,-0.015 0.018,-0.017 1.852,-1.85 4.472,-3.642 7.397,-3.631 0.154,0 0.342,0.019 0.551,0.051 -1.721,-1.914 -3.682,-3.544 -5.77,-4.349 -0.475,-0.183 -17.718,-6.998 -22.87,-6.269 -0.148,0.021 -0.286,0.041 -0.419,0.06 0.25,-0.036 0.419,-0.06 0.419,-0.06 0,0 -11.811,0.293 -19.621,8.097 -4.08,4.076 -7.662,11.388 -9.911,18.414 -0.029,1.783 2.246,4.023 6.915,5.749 z"
         id="path79"
         style="fill:#009a00;fill-opacity:1" /><path
         fill="#010101"
         d="m 33.018,60.553 c -2.322,-0.426 -6.635,-1.608 -11.232,-2.967 -0.7,2.769 -0.105,7.525 -0.105,7.525 0,0 -0.904,2.158 -4.467,1.369 -3.036,-0.674 -2.958,-2.865 -2.958,-2.865 0,0 -0.776,-4.446 -0.092,-8.359 C 9.788,53.878 6.07,52.641 4.702,52.116 3.056,51.486 1.869,50.608 1.014,49.627 c -0.063,0.389 -0.119,1.96 -0.172,2.334 -3.102,22.092 3.336,31.606 3.792,33.615 0.613,2.701 12.381,8.364 23.741,12.513 6.59,2.407 13.947,1.94 16.869,1.73 l 0.214,-0.012 c 0.465,-8.542 1.731,-30.777 2.352,-44.384 -0.984,4.996 -9.233,6.148 -14.792,5.13 z"
         id="path81"
         style="fill:#009a00;fill-opacity:1" /><path
         fill="#010101"
         d="m 67.83,64.129 c -0.124,-4.716 -0.235,-8.564 -0.287,-9.303 -0.091,-1.28 -0.161,-3.73 -0.206,-6.408 -0.455,-5.656 -1.913,-11.727 -3.16,-14.882 -2.096,-5.312 -8.183,1.351 -9.902,5.546 -1.78,4.344 -3.465,54.419 -3.629,59.383 4.25,-1.107 10.338,-2.696 11.084,-3.867 1.581,-2.476 2.438,-4.873 2.833,-6.914 0.262,-1.359 3.777,-2.63 3.777,-2.63 0,0 -0.249,-10.8 -0.474,-19.516 l -0.062,0.23 c 0,0.002 0.017,-0.599 0.026,-1.639 z"
         id="path83"
         style="fill:#009a00;fill-opacity:1" /><path
         fill="#010101"
         d="m 83.415,42.354 c 0,0 -0.901,-10.732 -1.105,-12.818 C 81.816,24.499 77.272,8.299 61.784,20.711 l 4.103,4.476 c 0,0 10.496,-9.432 10.892,13.042 0.033,1.902 0.159,4.559 1.303,20.549 1.266,17.679 -5.648,17.777 -5.648,17.777 l 0.312,7.518 c 0,0 2.568,-0.672 5.22,-1.788 3.753,-1.581 7.349,-8.198 7.349,-17.897 -0.004,-3.838 -1.9,-22.034 -1.9,-22.034 z"
         id="path85"
         style="fill:#009a00;fill-opacity:1" /><path
         fill="#010101"
         d="M 29.176,12.348 32.6,11.822 V 8.924 l 0.659,-2.37 c 0,0 -3.162,1.449 -4.083,2.897 -0.922,1.449 -1.318,2.239 -1.318,2.897 0,0.659 1.318,0 1.318,0 z"
         id="path87"
         style="fill:#009a00;fill-opacity:1" /></g></g></svg>
