<?xml version="1.0" encoding="UTF-8"?>
<!-- Created with Inkscape (http://www.inkscape.org/) -->
<svg width="258mm" height="62mm" version="1.1" viewBox="0 0 258 62" xml:space="preserve" xmlns="http://www.w3.org/2000/svg"><g transform="matrix(.4155 0 0 .4155 90.736 -23.368)"><path d="m-129.18 155.86 1.444-40.9 38.513 0.62761 0.33527 40.689z" fill="#fd0101" stroke-width=".45847"/><path d="m-82.337 178.44 5.6769-9.4105c11.214 10.521 17.099 8.8609 21.487-7.0507l-25.047-56.767h12.549l19.169 42.684 19.161-42.683h12.351c-9.4746 21.181-18.824 42.417-28.329 63.585-6.5686 20.63-23.012 20.766-37.017 9.6429zm290.19-24.558 5.2127-9.8656c10.597 8.7248 38.383 20.71 41.903-0.43634 1.2697-10.495-16.534-11.602-23.775-13.354-12.438-2.0866-21.388-12.044-21.074-21.173 1.2748-15.877 15.521-22.394 29.281-22.334 9.0749-0.3055 18.624 2.2624 25.519 7.7966-1.4596 3.4655-2.9169 6.932-4.3833 10.395-6.9792-4.7486-13.434-7.1358-21.841-7.1249-6.7971-0.26028-15.509 2.2053-16.143 10.108-0.78596 7.7921 7.7987 9.5501 13.581 11.397 13.335 3.1008 31.153 6.5569 31.133 23.654-4.2125 32.188-35.086 28.006-59.413 10.938zm-346.18-16.961c-1.3896-18.116 13.2-31.865 31.649-31.951 19.475 0.41233 28.362 14.563 28.6 30.05 0.57396 17.403-13.537 30.306-30.54 30.124-16.167 0.27532-28.877-12.334-29.709-28.223zm48.384-1.7241c0.48852-10.874-7.2314-19.441-18.145-19.444-10.467-0.40055-17.833 7.7981-18.256 17.857-1.0333 11.102 6.6537 20.528 17.918 20.614 10.977 0.49545 18.445-8.5079 18.484-19.028zm217.15 21.276c1.8941-3.208 3.6595-6.4922 5.6685-9.6304 9.7305 7.3679 31.005 13.891 32.363 1.0431 0.46848-5.6864-9.2143-6.4014-12.705-7.0629-13.169-2.4314-23.125-4.4125-22.844-17.973 0.12226-22.45 27.346-22.843 46.563-11.466l-5.4719 10.023c-11.78-7.7414-30.869-11.253-29.107 1.3664 0.78003 5.8476 8.6318 6.0446 14.092 7.1302 10.387 1.5729 21.543 5.121 21.575 17.33-4.7078 25.887-34.13 21.18-50.133 9.2397zm180.28-5.6792v-34.647h-9.8778v-10.936h9.8778v-11.994h11.994v11.994h16.581v10.936h-16.581s0.0207 21.755 0.031 32.632c0.88882 3.3994 3.0783 5.4426 6.6972 5.4606 3.6647 0.18941 6.4811-2.2356 9.3232-4.2258l4.3858 9.1599c-4.737 3.6247-8.7228 5.4936-14.728 5.9706-9.9998 0.4595-17.691-6.6204-17.703-14.35zm33.616-14.186c0.53635-21.049 12.223-31.254 27.077-31.849 19.686-0.69896 31.132 6.8218 30.853 24.798 0.0101 3.2932-0.176 9.873-0.176 9.873h-45.597c4.1989 16.296 22.188 17.504 35.821 6.3718l7.3074 8.1896c-19.404 17.707-54.895 11.956-55.286-17.383zm27.944-20.893c-13.46 0.0981-15.775 13.837-15.775 13.837h33.552s0.7424-14.207-17.777-13.837zm-580.23-28.496h13.409l26.361 59.899 26.483-59.722 13.125-0.19167-34.366 77.45-10.676 0.1946zm198.7-4.5861h11.994v82.197h-11.994zm28.222 22.578h11.994v59.619h-11.994zm28.046 0.17639 11.789-0.1934 0.2052 5.6657c18.521-13.553 44.738-2.1423 43.215 17.792v36.178h-11.994s-0.0093-22.931-0.014-34.396c-1.57-17.847-29.638-15.875-30.854-1.7639l-0.20643 36.16-12.34-0.0183zm234.11 59.317 0.13275-59.317 12.171-0.193v59.636zm-166.55-77.485h11.305l-3.85 27.359-8.4597-1.5795zm-97.366 2.9548c0.16682-5.2008 4.0937-7.8181 8.641-7.6165 4.0515-0.03117 6.8637 3.4961 6.8637 7.6603 0.14336 4.3295-3.4291 7.608-7.6461 7.5692-4.3509 0.16766-7.8502-3.2493-7.8585-7.6131zm262.46 0.04384c-0.2448-4.2702 3.1061-7.0936 7.1142-7.4538 5.2638-0.23048 8.1937 2.9801 8.1815 7.3905-0.10609 4.8593-3.3962 7.6547-7.887 7.6383-4.2377 0.06605-7.4087-3.4671-7.4087-7.575z" fill="#fefefe" stroke-width=".35278"/></g></svg>
